%TF.GenerationSoftware,KiCad,Pcbnew,8.0.3*%
%TF.CreationDate,2024-06-17T23:08:04+02:00*%
%TF.ProjectId,Sequenceur,53657175-656e-4636-9575-722e6b696361,rev?*%
%TF.SameCoordinates,PX4add0a0PY8e93060*%
%TF.FileFunction,Soldermask,Bot*%
%TF.FilePolarity,Negative*%
%FSLAX46Y46*%
G04 Gerber Fmt 4.6, Leading zero omitted, Abs format (unit mm)*
G04 Created by KiCad (PCBNEW 8.0.3) date 2024-06-17 23:08:04*
%MOMM*%
%LPD*%
G01*
G04 APERTURE LIST*
G04 Aperture macros list*
%AMRoundRect*
0 Rectangle with rounded corners*
0 $1 Rounding radius*
0 $2 $3 $4 $5 $6 $7 $8 $9 X,Y pos of 4 corners*
0 Add a 4 corners polygon primitive as box body*
4,1,4,$2,$3,$4,$5,$6,$7,$8,$9,$2,$3,0*
0 Add four circle primitives for the rounded corners*
1,1,$1+$1,$2,$3*
1,1,$1+$1,$4,$5*
1,1,$1+$1,$6,$7*
1,1,$1+$1,$8,$9*
0 Add four rect primitives between the rounded corners*
20,1,$1+$1,$2,$3,$4,$5,0*
20,1,$1+$1,$4,$5,$6,$7,0*
20,1,$1+$1,$6,$7,$8,$9,0*
20,1,$1+$1,$8,$9,$2,$3,0*%
G04 Aperture macros list end*
%ADD10R,3.500000X3.500000*%
%ADD11RoundRect,0.750000X-0.750000X-1.000000X0.750000X-1.000000X0.750000X1.000000X-0.750000X1.000000X0*%
%ADD12RoundRect,0.875000X-0.875000X-0.875000X0.875000X-0.875000X0.875000X0.875000X-0.875000X0.875000X0*%
%ADD13RoundRect,0.625000X1.767767X0.883883X0.883883X1.767767X-1.767767X-0.883883X-0.883883X-1.767767X0*%
%ADD14RoundRect,0.625000X-0.625000X-1.875000X0.625000X-1.875000X0.625000X1.875000X-0.625000X1.875000X0*%
%ADD15RoundRect,0.625000X-1.875000X0.625000X-1.875000X-0.625000X1.875000X-0.625000X1.875000X0.625000X0*%
%ADD16RoundRect,0.625000X1.875000X-0.625000X1.875000X0.625000X-1.875000X0.625000X-1.875000X-0.625000X0*%
%ADD17C,4.000000*%
%ADD18C,2.340000*%
%ADD19R,1.800000X1.800000*%
%ADD20C,1.800000*%
%ADD21R,1.600000X1.600000*%
%ADD22O,1.600000X1.600000*%
%ADD23C,1.600000*%
%ADD24R,1.755000X1.755000*%
%ADD25C,1.750000*%
%ADD26C,1.755000*%
G04 APERTURE END LIST*
D10*
%TO.C,J1*%
X10000000Y88000000D03*
D11*
X4000000Y88000000D03*
D12*
X7000000Y83300000D03*
%TD*%
D13*
%TO.C,J2*%
X122503806Y83212500D03*
D14*
X133600000Y79112500D03*
D15*
X129600000Y85112500D03*
%TD*%
D16*
%TO.C,SW1*%
X6500000Y62750000D03*
X6500000Y68000000D03*
%TD*%
D17*
%TO.C,*%
X142000000Y97000000D03*
%TD*%
%TO.C,*%
X3000000Y52500000D03*
%TD*%
%TO.C,*%
X142000000Y52500000D03*
%TD*%
%TO.C,*%
X72500000Y3000000D03*
%TD*%
%TO.C,*%
X72500000Y97000000D03*
%TD*%
%TO.C,*%
X142000000Y3000000D03*
%TD*%
%TO.C,*%
X3000000Y3000000D03*
%TD*%
%TO.C,*%
X3000000Y97000000D03*
%TD*%
D18*
%TO.C,RV8*%
X111547000Y27158000D03*
X116547000Y27158000D03*
X121547000Y27158000D03*
%TD*%
%TO.C,RV5*%
X78047000Y27158000D03*
X83047000Y27158000D03*
X88047000Y27158000D03*
%TD*%
D19*
%TO.C,D5*%
X84000000Y3500000D03*
D20*
X84000000Y6040000D03*
%TD*%
D18*
%TO.C,RV1*%
X7547000Y27158000D03*
X12547000Y27158000D03*
X17547000Y27158000D03*
%TD*%
D19*
%TO.C,D7*%
X116500000Y3500000D03*
D20*
X116500000Y6040000D03*
%TD*%
D19*
%TO.C,D2*%
X30500000Y3500000D03*
D20*
X30500000Y6040000D03*
%TD*%
D21*
%TO.C,U1*%
X18200000Y72800000D03*
D22*
X18200000Y70260000D03*
X18200000Y67720000D03*
X18200000Y65180000D03*
X25820000Y65180000D03*
X25820000Y67720000D03*
X25820000Y70260000D03*
X25820000Y72800000D03*
%TD*%
D19*
%TO.C,D3*%
X49000000Y3500000D03*
D20*
X49000000Y6040000D03*
%TD*%
D18*
%TO.C,RV2*%
X25547000Y14658000D03*
X30547000Y14658000D03*
X35547000Y14658000D03*
%TD*%
D21*
%TO.C,C1*%
X12500000Y80000000D03*
D23*
X12500000Y77500000D03*
%TD*%
D21*
%TO.C,C4*%
X30000000Y67794888D03*
D23*
X30000000Y70294888D03*
%TD*%
D19*
%TO.C,D8*%
X133500000Y3500000D03*
D20*
X133500000Y6040000D03*
%TD*%
D19*
%TO.C,D10*%
X112500000Y77460000D03*
D20*
X112500000Y80000000D03*
%TD*%
D19*
%TO.C,D4*%
X66000000Y3500000D03*
D20*
X66000000Y6040000D03*
%TD*%
D19*
%TO.C,D6*%
X99500000Y3500000D03*
D20*
X99500000Y6040000D03*
%TD*%
D19*
%TO.C,D1*%
X12500000Y3500000D03*
D20*
X12500000Y6040000D03*
%TD*%
D21*
%TO.C,U2*%
X61700000Y39700000D03*
D22*
X64240000Y39700000D03*
X66780000Y39700000D03*
X69320000Y39700000D03*
X69320000Y47320000D03*
X66780000Y47320000D03*
X64240000Y47320000D03*
X61700000Y47320000D03*
%TD*%
D18*
%TO.C,RV4*%
X61000000Y14658000D03*
X66000000Y14658000D03*
X71000000Y14658000D03*
%TD*%
%TO.C,RV9*%
X128547000Y14658000D03*
X133547000Y14658000D03*
X138547000Y14658000D03*
%TD*%
%TO.C,RV6*%
X94547000Y14658000D03*
X99547000Y14658000D03*
X104547000Y14658000D03*
%TD*%
D24*
%TO.C,SW2*%
X50874816Y75652991D03*
D25*
X53245000Y70880000D03*
X58652991Y67874816D03*
X64347009Y67874816D03*
D26*
X69278175Y70721825D03*
D25*
X72125184Y75652991D03*
X72125184Y81347009D03*
D26*
X69278175Y86278175D03*
D25*
X64347009Y89125184D03*
X58652991Y89125184D03*
X53721825Y86278175D03*
X50874816Y81347009D03*
D26*
X58671573Y75671573D03*
%TD*%
D18*
%TO.C,RV3*%
X43547000Y27158000D03*
X48547000Y27158000D03*
X53547000Y27158000D03*
%TD*%
D19*
%TO.C,D9*%
X20000000Y82960000D03*
D20*
X20000000Y85500000D03*
%TD*%
D18*
%TO.C,RV7*%
X31547000Y77158000D03*
X36547000Y77158000D03*
X41547000Y77158000D03*
%TD*%
M02*
