%TF.GenerationSoftware,KiCad,Pcbnew,8.0.3*%
%TF.CreationDate,2024-06-17T23:07:46+02:00*%
%TF.ProjectId,Sequenceur,53657175-656e-4636-9575-722e6b696361,rev?*%
%TF.SameCoordinates,PX4add0a0PY8e93060*%
%TF.FileFunction,Copper,L1,Top*%
%TF.FilePolarity,Positive*%
%FSLAX46Y46*%
G04 Gerber Fmt 4.6, Leading zero omitted, Abs format (unit mm)*
G04 Created by KiCad (PCBNEW 8.0.3) date 2024-06-17 23:07:46*
%MOMM*%
%LPD*%
G01*
G04 APERTURE LIST*
G04 Aperture macros list*
%AMRoundRect*
0 Rectangle with rounded corners*
0 $1 Rounding radius*
0 $2 $3 $4 $5 $6 $7 $8 $9 X,Y pos of 4 corners*
0 Add a 4 corners polygon primitive as box body*
4,1,4,$2,$3,$4,$5,$6,$7,$8,$9,$2,$3,0*
0 Add four circle primitives for the rounded corners*
1,1,$1+$1,$2,$3*
1,1,$1+$1,$4,$5*
1,1,$1+$1,$6,$7*
1,1,$1+$1,$8,$9*
0 Add four rect primitives between the rounded corners*
20,1,$1+$1,$2,$3,$4,$5,0*
20,1,$1+$1,$4,$5,$6,$7,0*
20,1,$1+$1,$6,$7,$8,$9,0*
20,1,$1+$1,$8,$9,$2,$3,0*%
G04 Aperture macros list end*
%TA.AperFunction,ComponentPad*%
%ADD10R,3.500000X3.500000*%
%TD*%
%TA.AperFunction,ComponentPad*%
%ADD11RoundRect,0.750000X-0.750000X-1.000000X0.750000X-1.000000X0.750000X1.000000X-0.750000X1.000000X0*%
%TD*%
%TA.AperFunction,ComponentPad*%
%ADD12RoundRect,0.875000X-0.875000X-0.875000X0.875000X-0.875000X0.875000X0.875000X-0.875000X0.875000X0*%
%TD*%
%TA.AperFunction,ComponentPad*%
%ADD13RoundRect,0.625000X1.767767X0.883883X0.883883X1.767767X-1.767767X-0.883883X-0.883883X-1.767767X0*%
%TD*%
%TA.AperFunction,ComponentPad*%
%ADD14RoundRect,0.625000X-0.625000X-1.875000X0.625000X-1.875000X0.625000X1.875000X-0.625000X1.875000X0*%
%TD*%
%TA.AperFunction,ComponentPad*%
%ADD15RoundRect,0.625000X-1.875000X0.625000X-1.875000X-0.625000X1.875000X-0.625000X1.875000X0.625000X0*%
%TD*%
%TA.AperFunction,ComponentPad*%
%ADD16RoundRect,0.625000X1.875000X-0.625000X1.875000X0.625000X-1.875000X0.625000X-1.875000X-0.625000X0*%
%TD*%
%TA.AperFunction,WasherPad*%
%ADD17C,4.000000*%
%TD*%
%TA.AperFunction,ComponentPad*%
%ADD18C,2.340000*%
%TD*%
%TA.AperFunction,SMDPad,CuDef*%
%ADD19RoundRect,0.200000X0.200000X0.275000X-0.200000X0.275000X-0.200000X-0.275000X0.200000X-0.275000X0*%
%TD*%
%TA.AperFunction,ComponentPad*%
%ADD20R,1.800000X1.800000*%
%TD*%
%TA.AperFunction,ComponentPad*%
%ADD21C,1.800000*%
%TD*%
%TA.AperFunction,SMDPad,CuDef*%
%ADD22RoundRect,0.200000X0.275000X-0.200000X0.275000X0.200000X-0.275000X0.200000X-0.275000X-0.200000X0*%
%TD*%
%TA.AperFunction,ComponentPad*%
%ADD23R,1.600000X1.600000*%
%TD*%
%TA.AperFunction,ComponentPad*%
%ADD24O,1.600000X1.600000*%
%TD*%
%TA.AperFunction,ComponentPad*%
%ADD25C,1.600000*%
%TD*%
%TA.AperFunction,SMDPad,CuDef*%
%ADD26RoundRect,0.250000X0.475000X-0.250000X0.475000X0.250000X-0.475000X0.250000X-0.475000X-0.250000X0*%
%TD*%
%TA.AperFunction,SMDPad,CuDef*%
%ADD27RoundRect,0.042000X0.258000X-0.943000X0.258000X0.943000X-0.258000X0.943000X-0.258000X-0.943000X0*%
%TD*%
%TA.AperFunction,SMDPad,CuDef*%
%ADD28RoundRect,0.250000X-0.475000X0.250000X-0.475000X-0.250000X0.475000X-0.250000X0.475000X0.250000X0*%
%TD*%
%TA.AperFunction,SMDPad,CuDef*%
%ADD29RoundRect,0.250000X0.262500X0.450000X-0.262500X0.450000X-0.262500X-0.450000X0.262500X-0.450000X0*%
%TD*%
%TA.AperFunction,ComponentPad*%
%ADD30R,1.755000X1.755000*%
%TD*%
%TA.AperFunction,ComponentPad*%
%ADD31C,1.750000*%
%TD*%
%TA.AperFunction,ComponentPad*%
%ADD32C,1.755000*%
%TD*%
%TA.AperFunction,SMDPad,CuDef*%
%ADD33RoundRect,0.200000X-0.275000X0.200000X-0.275000X-0.200000X0.275000X-0.200000X0.275000X0.200000X0*%
%TD*%
%TA.AperFunction,ViaPad*%
%ADD34C,0.700000*%
%TD*%
%TA.AperFunction,ViaPad*%
%ADD35C,0.600000*%
%TD*%
%TA.AperFunction,Conductor*%
%ADD36C,0.600000*%
%TD*%
%TA.AperFunction,Conductor*%
%ADD37C,1.000000*%
%TD*%
%TA.AperFunction,Conductor*%
%ADD38C,0.300000*%
%TD*%
G04 APERTURE END LIST*
D10*
%TO.P,J1,1*%
%TO.N,Net-(C1-Pad1)*%
X10000000Y88000000D03*
D11*
%TO.P,J1,2*%
%TO.N,GND*%
X4000000Y88000000D03*
D12*
%TO.P,J1,3*%
X7000000Y83300000D03*
%TD*%
D13*
%TO.P,J2,S*%
%TO.N,GND*%
X122503806Y83212500D03*
D14*
%TO.P,J2,T*%
%TO.N,Net-(D10-A)*%
X133600000Y79112500D03*
D15*
%TO.P,J2,TN*%
%TO.N,unconnected-(J2-PadTN)*%
X129600000Y85112500D03*
%TD*%
D16*
%TO.P,SW1,1,1*%
%TO.N,Net-(C1-Pad1)*%
X6500000Y62750000D03*
%TO.P,SW1,2,2*%
%TO.N,VCC*%
X6500000Y68000000D03*
%TD*%
D17*
%TO.P,,*%
%TO.N,*%
X142000000Y97000000D03*
%TD*%
%TO.P,,*%
%TO.N,*%
X3000000Y52500000D03*
%TD*%
%TO.P,,*%
%TO.N,*%
X142000000Y52500000D03*
%TD*%
%TO.P,,*%
%TO.N,*%
X72500000Y3000000D03*
%TD*%
%TO.P,,*%
%TO.N,*%
X72500000Y97000000D03*
%TD*%
%TO.P,,*%
%TO.N,*%
X142000000Y3000000D03*
%TD*%
%TO.P,,*%
%TO.N,*%
X3000000Y3000000D03*
%TD*%
%TO.P,,*%
%TO.N,*%
X3000000Y97000000D03*
%TD*%
D18*
%TO.P,RV8,1,1*%
%TO.N,GND*%
X111547000Y27158000D03*
%TO.P,RV8,2,2*%
%TO.N,sig_6*%
X116547000Y27158000D03*
%TO.P,RV8,3,3*%
%TO.N,Net-(D7-A)*%
X121547000Y27158000D03*
%TD*%
D19*
%TO.P,R5,1*%
%TO.N,GND*%
X114150000Y72000000D03*
%TO.P,R5,2*%
%TO.N,Net-(D10-K)*%
X112500000Y72000000D03*
%TD*%
D18*
%TO.P,RV5,1,1*%
%TO.N,GND*%
X78047000Y27158000D03*
%TO.P,RV5,2,2*%
%TO.N,sig_4*%
X83047000Y27158000D03*
%TO.P,RV5,3,3*%
%TO.N,Net-(D5-A)*%
X88047000Y27158000D03*
%TD*%
D20*
%TO.P,D5,1,K*%
%TO.N,Net-(D1-K)*%
X84000000Y3500000D03*
D21*
%TO.P,D5,2,A*%
%TO.N,Net-(D5-A)*%
X84000000Y6040000D03*
%TD*%
D18*
%TO.P,RV1,1,1*%
%TO.N,GND*%
X7547000Y27158000D03*
%TO.P,RV1,2,2*%
%TO.N,sig_0*%
X12547000Y27158000D03*
%TO.P,RV1,3,3*%
%TO.N,Net-(D1-A)*%
X17547000Y27158000D03*
%TD*%
D20*
%TO.P,D7,1,K*%
%TO.N,Net-(D1-K)*%
X116500000Y3500000D03*
D21*
%TO.P,D7,2,A*%
%TO.N,Net-(D7-A)*%
X116500000Y6040000D03*
%TD*%
D20*
%TO.P,D2,1,K*%
%TO.N,Net-(D1-K)*%
X30500000Y3500000D03*
D21*
%TO.P,D2,2,A*%
%TO.N,Net-(D2-A)*%
X30500000Y6040000D03*
%TD*%
D22*
%TO.P,R4,1*%
%TO.N,Net-(U1-Q)*%
X14000000Y84000000D03*
%TO.P,R4,2*%
%TO.N,Net-(D9-A)*%
X14000000Y85650000D03*
%TD*%
D23*
%TO.P,U1,1,GND*%
%TO.N,GND*%
X18200000Y72800000D03*
D24*
%TO.P,U1,2,TR*%
%TO.N,Net-(U1-THR)*%
X18200000Y70260000D03*
%TO.P,U1,3,Q*%
%TO.N,Net-(U1-Q)*%
X18200000Y67720000D03*
%TO.P,U1,4,R*%
%TO.N,VCC*%
X18200000Y65180000D03*
%TO.P,U1,5,CV*%
%TO.N,unconnected-(U1-CV-Pad5)*%
X25820000Y65180000D03*
%TO.P,U1,6,THR*%
%TO.N,Net-(U1-THR)*%
X25820000Y67720000D03*
%TO.P,U1,7,DIS*%
%TO.N,unconnected-(U1-DIS-Pad7)*%
X25820000Y70260000D03*
%TO.P,U1,8,VCC*%
%TO.N,VCC*%
X25820000Y72800000D03*
%TD*%
D20*
%TO.P,D3,1,K*%
%TO.N,Net-(D1-K)*%
X49000000Y3500000D03*
D21*
%TO.P,D3,2,A*%
%TO.N,Net-(D3-A)*%
X49000000Y6040000D03*
%TD*%
D18*
%TO.P,RV2,1,1*%
%TO.N,GND*%
X25547000Y14658000D03*
%TO.P,RV2,2,2*%
%TO.N,sig_1*%
X30547000Y14658000D03*
%TO.P,RV2,3,3*%
%TO.N,Net-(D2-A)*%
X35547000Y14658000D03*
%TD*%
D19*
%TO.P,R1,1*%
%TO.N,Net-(U1-THR)*%
X14500000Y70000000D03*
%TO.P,R1,2*%
%TO.N,VCC*%
X12850000Y70000000D03*
%TD*%
D23*
%TO.P,C1,1*%
%TO.N,Net-(C1-Pad1)*%
X12500000Y80000000D03*
D25*
%TO.P,C1,2*%
%TO.N,GND*%
X12500000Y77500000D03*
%TD*%
D23*
%TO.P,C4,1*%
%TO.N,Net-(U1-THR)*%
X30000000Y67794888D03*
D25*
%TO.P,C4,2*%
%TO.N,GND*%
X30000000Y70294888D03*
%TD*%
D20*
%TO.P,D8,1,K*%
%TO.N,Net-(D1-K)*%
X133500000Y3500000D03*
D21*
%TO.P,D8,2,A*%
%TO.N,Net-(D8-A)*%
X133500000Y6040000D03*
%TD*%
D26*
%TO.P,C5,1*%
%TO.N,VCC*%
X26000000Y75500000D03*
%TO.P,C5,2*%
%TO.N,GND*%
X26000000Y77400000D03*
%TD*%
D20*
%TO.P,D10,1,K*%
%TO.N,Net-(D10-K)*%
X112500000Y77460000D03*
D21*
%TO.P,D10,2,A*%
%TO.N,Net-(D10-A)*%
X112500000Y80000000D03*
%TD*%
D27*
%TO.P,U3,1,Q5*%
%TO.N,sig_5*%
X36555000Y53025000D03*
%TO.P,U3,2,Q1*%
%TO.N,sig_1*%
X37825000Y53025000D03*
%TO.P,U3,3,Q0*%
%TO.N,sig_0*%
X39095000Y53025000D03*
%TO.P,U3,4,Q2*%
%TO.N,sig_2*%
X40365000Y53025000D03*
%TO.P,U3,5,Q6*%
%TO.N,sig_6*%
X41635000Y53025000D03*
%TO.P,U3,6,Q7*%
%TO.N,sig_7*%
X42905000Y53025000D03*
%TO.P,U3,7,Q3*%
%TO.N,sig_3*%
X44175000Y53025000D03*
%TO.P,U3,8,VSS*%
%TO.N,GND*%
X45445000Y53025000D03*
%TO.P,U3,9,Q8*%
%TO.N,Net-(U3-Q8)*%
X45445000Y57975000D03*
%TO.P,U3,10,Q4*%
%TO.N,sig_4*%
X44175000Y57975000D03*
%TO.P,U3,11,Q9*%
%TO.N,unconnected-(U3-Q9-Pad11)*%
X42905000Y57975000D03*
%TO.P,U3,12,Cout*%
%TO.N,unconnected-(U3-Cout-Pad12)*%
X41635000Y57975000D03*
%TO.P,U3,13,CKEN*%
%TO.N,GND*%
X40365000Y57975000D03*
%TO.P,U3,14,CLK*%
%TO.N,Net-(U1-Q)*%
X39095000Y57975000D03*
%TO.P,U3,15,Reset*%
%TO.N,Net-(U3-Reset)*%
X37825000Y57975000D03*
%TO.P,U3,16,VDD*%
%TO.N,VCC*%
X36555000Y57975000D03*
%TD*%
D28*
%TO.P,C3,1*%
%TO.N,Net-(C1-Pad1)*%
X4000000Y79950000D03*
%TO.P,C3,2*%
%TO.N,GND*%
X4000000Y78050000D03*
%TD*%
D20*
%TO.P,D4,1,K*%
%TO.N,Net-(D1-K)*%
X66000000Y3500000D03*
D21*
%TO.P,D4,2,A*%
%TO.N,Net-(D4-A)*%
X66000000Y6040000D03*
%TD*%
D29*
%TO.P,R2,1*%
%TO.N,Net-(R2-Pad1)*%
X37412500Y65000000D03*
%TO.P,R2,2*%
%TO.N,Net-(U1-Q)*%
X35587500Y65000000D03*
%TD*%
D20*
%TO.P,D6,1,K*%
%TO.N,Net-(D1-K)*%
X99500000Y3500000D03*
D21*
%TO.P,D6,2,A*%
%TO.N,Net-(D6-A)*%
X99500000Y6040000D03*
%TD*%
D20*
%TO.P,D1,1,K*%
%TO.N,Net-(D1-K)*%
X12500000Y3500000D03*
D21*
%TO.P,D1,2,A*%
%TO.N,Net-(D1-A)*%
X12500000Y6040000D03*
%TD*%
D28*
%TO.P,C2,1*%
%TO.N,Net-(C1-Pad1)*%
X7500000Y79950000D03*
%TO.P,C2,2*%
%TO.N,GND*%
X7500000Y78050000D03*
%TD*%
D23*
%TO.P,U2,1,VOS*%
%TO.N,unconnected-(U2-VOS-Pad1)*%
X61700000Y39700000D03*
D24*
%TO.P,U2,2,-*%
%TO.N,Net-(D10-A)*%
X64240000Y39700000D03*
%TO.P,U2,3,+*%
%TO.N,Net-(D1-K)*%
X66780000Y39700000D03*
%TO.P,U2,4,V-*%
%TO.N,GND*%
X69320000Y39700000D03*
%TO.P,U2,5,NC*%
%TO.N,unconnected-(U2-NC-Pad5)*%
X69320000Y47320000D03*
%TO.P,U2,6*%
%TO.N,Net-(D10-A)*%
X66780000Y47320000D03*
%TO.P,U2,7,V+*%
%TO.N,VCC*%
X64240000Y47320000D03*
%TO.P,U2,8,VOS*%
%TO.N,unconnected-(U2-VOS-Pad8)*%
X61700000Y47320000D03*
%TD*%
D18*
%TO.P,RV4,1,1*%
%TO.N,GND*%
X61000000Y14658000D03*
%TO.P,RV4,2,2*%
%TO.N,sig_3*%
X66000000Y14658000D03*
%TO.P,RV4,3,3*%
%TO.N,Net-(D4-A)*%
X71000000Y14658000D03*
%TD*%
%TO.P,RV9,1,1*%
%TO.N,GND*%
X128547000Y14658000D03*
%TO.P,RV9,2,2*%
%TO.N,sig_7*%
X133547000Y14658000D03*
%TO.P,RV9,3,3*%
%TO.N,Net-(D8-A)*%
X138547000Y14658000D03*
%TD*%
%TO.P,RV6,1,1*%
%TO.N,GND*%
X94547000Y14658000D03*
%TO.P,RV6,2,2*%
%TO.N,sig_5*%
X99547000Y14658000D03*
%TO.P,RV6,3,3*%
%TO.N,Net-(D6-A)*%
X104547000Y14658000D03*
%TD*%
D30*
%TO.P,SW2,1,1*%
%TO.N,sig_1*%
X50874816Y75652991D03*
D31*
%TO.P,SW2,2,2*%
%TO.N,sig_2*%
X53245000Y70880000D03*
%TO.P,SW2,3,3*%
%TO.N,sig_3*%
X58652991Y67874816D03*
%TO.P,SW2,4,4*%
%TO.N,sig_4*%
X64347009Y67874816D03*
D32*
%TO.P,SW2,5,5*%
%TO.N,sig_5*%
X69278175Y70721825D03*
D31*
%TO.P,SW2,6,6*%
%TO.N,sig_6*%
X72125184Y75652991D03*
%TO.P,SW2,7,7*%
%TO.N,sig_7*%
X72125184Y81347009D03*
D32*
%TO.P,SW2,8,8*%
%TO.N,Net-(U3-Q8)*%
X69278175Y86278175D03*
D31*
%TO.P,SW2,9,9*%
X64347009Y89125184D03*
%TO.P,SW2,10,10*%
X58652991Y89125184D03*
%TO.P,SW2,11,11*%
X53721825Y86278175D03*
%TO.P,SW2,12,12*%
X50874816Y81347009D03*
D32*
%TO.P,SW2,13,13*%
%TO.N,Net-(U3-Reset)*%
X58671573Y75671573D03*
%TD*%
D18*
%TO.P,RV3,1,1*%
%TO.N,GND*%
X43547000Y27158000D03*
%TO.P,RV3,2,2*%
%TO.N,sig_2*%
X48547000Y27158000D03*
%TO.P,RV3,3,3*%
%TO.N,Net-(D3-A)*%
X53547000Y27158000D03*
%TD*%
D33*
%TO.P,R3,1*%
%TO.N,Net-(D1-K)*%
X78000000Y3325000D03*
%TO.P,R3,2*%
%TO.N,GND*%
X78000000Y1675000D03*
%TD*%
D20*
%TO.P,D9,1,K*%
%TO.N,GND*%
X20000000Y82960000D03*
D21*
%TO.P,D9,2,A*%
%TO.N,Net-(D9-A)*%
X20000000Y85500000D03*
%TD*%
D18*
%TO.P,RV7,1,1*%
%TO.N,unconnected-(RV7-Pad1)*%
X31547000Y77158000D03*
%TO.P,RV7,2,2*%
%TO.N,Net-(U1-THR)*%
X36547000Y77158000D03*
%TO.P,RV7,3,3*%
%TO.N,Net-(R2-Pad1)*%
X41547000Y77158000D03*
%TD*%
D34*
%TO.N,GND*%
X26000000Y79000000D03*
X115500000Y72000000D03*
X76500000Y1675000D03*
D35*
X40365000Y59865000D03*
D34*
X7500000Y77000000D03*
D35*
X46500000Y52500000D03*
D34*
X4000000Y77000000D03*
%TO.N,VCC*%
X27000000Y51180000D03*
X30180000Y48000000D03*
D35*
%TO.N,Net-(D5-A)*%
X88047000Y24000000D03*
D34*
%TO.N,Net-(U1-Q)*%
X21500000Y77000000D03*
D35*
%TO.N,sig_1*%
X36360912Y61139088D03*
X35500000Y55000000D03*
%TO.N,sig_2*%
X39750000Y50250000D03*
X37500000Y50000000D03*
%TO.N,sig_3*%
X58000000Y57500000D03*
X60500000Y55000000D03*
%TO.N,sig_6*%
X76500000Y75500000D03*
%TO.N,sig_7*%
X77000000Y77500000D03*
D34*
%TO.N,Net-(D10-A)*%
X85500000Y66000000D03*
X76500000Y57000000D03*
X87750000Y68250000D03*
D35*
X73500000Y54000000D03*
%TD*%
D36*
%TO.N,Net-(D10-A)*%
X133600000Y82000000D02*
X133600000Y86801745D01*
X133600000Y86801745D02*
X131901745Y88500000D01*
X131901745Y88500000D02*
X122500000Y88500000D01*
X122500000Y88500000D02*
X116000000Y82000000D01*
X116000000Y82000000D02*
X112500000Y82000000D01*
D37*
X133600000Y79112500D02*
X133600000Y82000000D01*
D36*
X87750000Y68250000D02*
X102500000Y83000000D01*
X102500000Y83000000D02*
X111500000Y83000000D01*
X112500000Y82000000D02*
X112500000Y80000000D01*
X111500000Y83000000D02*
X112500000Y82000000D01*
D37*
%TO.N,Net-(C1-Pad1)*%
X11500000Y81000000D02*
X10450000Y79950000D01*
X10450000Y79950000D02*
X7500000Y79950000D01*
D38*
%TO.N,Net-(D1-K)*%
X75500000Y4000000D02*
X73500000Y6000000D01*
X73500000Y6000000D02*
X68500000Y6000000D01*
D36*
X75500000Y21000000D02*
X66780000Y29720000D01*
D38*
X68500000Y6000000D02*
X66000000Y3500000D01*
D36*
X75500000Y4000000D02*
X75500000Y21000000D01*
X76000000Y3500000D02*
X75500000Y4000000D01*
X66780000Y29720000D02*
X66780000Y39700000D01*
D38*
X76000000Y3500000D02*
X84000000Y3500000D01*
D36*
%TO.N,GND*%
X76500000Y1675000D02*
X77825000Y1675000D01*
X40365000Y59865000D02*
X40365000Y57975000D01*
X45970000Y52500000D02*
X45445000Y53025000D01*
X46500000Y52500000D02*
X45970000Y52500000D01*
X114150000Y72000000D02*
X115500000Y72000000D01*
X26000000Y77400000D02*
X26000000Y79000000D01*
X4000000Y78050000D02*
X4000000Y77000000D01*
X7500000Y78050000D02*
X7500000Y77000000D01*
%TO.N,Net-(U1-THR)*%
X21740000Y70260000D02*
X18200000Y70260000D01*
X36547000Y71547000D02*
X32794888Y67794888D01*
X32794888Y67794888D02*
X30000000Y67794888D01*
X25820000Y67720000D02*
X24280000Y67720000D01*
X36547000Y77158000D02*
X36547000Y71547000D01*
X24280000Y67720000D02*
X21740000Y70260000D01*
X25820000Y67720000D02*
X29925112Y67720000D01*
X17940000Y70000000D02*
X14500000Y70000000D01*
D37*
%TO.N,VCC*%
X13000000Y65180000D02*
X9320000Y65180000D01*
D36*
X55920000Y39000000D02*
X64240000Y47320000D01*
D37*
X15500000Y65180000D02*
X13000000Y65180000D01*
X6500000Y68000000D02*
X10850000Y68000000D01*
X9320000Y65180000D02*
X6500000Y68000000D01*
D36*
X30180000Y48000000D02*
X39180000Y39000000D01*
D37*
X26000000Y75500000D02*
X26000000Y72980000D01*
D36*
X22705000Y57975000D02*
X15500000Y65180000D01*
D37*
X8000000Y68000000D02*
X15500000Y75500000D01*
X15500000Y65180000D02*
X18200000Y65180000D01*
D36*
X27000000Y51180000D02*
X13000000Y65180000D01*
D37*
X10850000Y68000000D02*
X12850000Y70000000D01*
X15500000Y75500000D02*
X26000000Y75500000D01*
D36*
X39180000Y39000000D02*
X55920000Y39000000D01*
X36555000Y57975000D02*
X22705000Y57975000D01*
D38*
%TO.N,Net-(D1-A)*%
X17547000Y11087000D02*
X12500000Y6040000D01*
X17547000Y27158000D02*
X17547000Y11087000D01*
%TO.N,Net-(D2-A)*%
X35547000Y14658000D02*
X35547000Y11087000D01*
X35547000Y11087000D02*
X30500000Y6040000D01*
%TO.N,Net-(D3-A)*%
X53547000Y10587000D02*
X49000000Y6040000D01*
X53547000Y27158000D02*
X53547000Y10587000D01*
%TO.N,Net-(D4-A)*%
X71000000Y11040000D02*
X66000000Y6040000D01*
X71000000Y14658000D02*
X71000000Y11040000D01*
%TO.N,Net-(D5-A)*%
X87000000Y9040000D02*
X84000000Y6040000D01*
X88047000Y24000000D02*
X87000000Y22953000D01*
X87000000Y22953000D02*
X87000000Y9040000D01*
%TO.N,Net-(D6-A)*%
X104547000Y11087000D02*
X99500000Y6040000D01*
X104547000Y14658000D02*
X104547000Y11087000D01*
%TO.N,Net-(D7-A)*%
X121547000Y11087000D02*
X116500000Y6040000D01*
X121547000Y27158000D02*
X121547000Y11087000D01*
%TO.N,Net-(D8-A)*%
X138547000Y11087000D02*
X133500000Y6040000D01*
X138547000Y14658000D02*
X138547000Y11087000D01*
D36*
%TO.N,Net-(D9-A)*%
X14000000Y85650000D02*
X19850000Y85650000D01*
%TO.N,Net-(U1-Q)*%
X31500000Y63000000D02*
X33587500Y63000000D01*
D38*
X31500000Y63000000D02*
X31500000Y62500000D01*
X39095000Y59405000D02*
X39095000Y57975000D01*
D36*
X22920000Y63000000D02*
X18200000Y67720000D01*
X21500000Y77000000D02*
X14500000Y84000000D01*
D38*
X38500000Y60000000D02*
X39095000Y59405000D01*
X34000000Y60000000D02*
X38500000Y60000000D01*
D36*
X33587500Y63000000D02*
X35587500Y65000000D01*
X31500000Y63000000D02*
X22920000Y63000000D01*
X14500000Y84000000D02*
X14000000Y84000000D01*
D38*
X31500000Y62500000D02*
X34000000Y60000000D01*
%TO.N,Net-(D1-K)*%
X30500000Y3500000D02*
X49000000Y3500000D01*
X99500000Y3500000D02*
X84000000Y3500000D01*
X49000000Y3500000D02*
X66000000Y3500000D01*
X99500000Y3500000D02*
X116500000Y3500000D01*
X116500000Y3500000D02*
X133500000Y3500000D01*
X12500000Y3500000D02*
X30500000Y3500000D01*
%TO.N,sig_0*%
X39095000Y54009999D02*
X39095000Y53025000D01*
X37104999Y56000000D02*
X39095000Y54009999D01*
X12547000Y35047000D02*
X12547000Y27158000D01*
X33500000Y56000000D02*
X37104999Y56000000D01*
X12547000Y35047000D02*
X33500000Y56000000D01*
%TO.N,sig_1*%
X29000000Y16205000D02*
X30547000Y14658000D01*
X29000000Y42500000D02*
X29000000Y16205000D01*
X37000000Y55000000D02*
X37825000Y54175000D01*
X27500000Y44000000D02*
X29000000Y42500000D01*
X34000000Y55000000D02*
X27500000Y48500000D01*
X35500000Y55000000D02*
X34000000Y55000000D01*
X36360912Y61139088D02*
X36360913Y61139088D01*
X36360913Y61139088D02*
X50874816Y75652991D01*
X27500000Y48500000D02*
X27500000Y44000000D01*
X35500000Y55000000D02*
X37000000Y55000000D01*
X37825000Y54175000D02*
X37825000Y53025000D01*
%TO.N,sig_2*%
X28500000Y48000000D02*
X28500000Y47000000D01*
X40365000Y54009999D02*
X40365000Y53025000D01*
X58127564Y77000000D02*
X59500000Y77000000D01*
X60000000Y72000000D02*
X54000000Y66000000D01*
X54000000Y59823464D02*
X49176536Y55000000D01*
X41355001Y55000000D02*
X40365000Y54009999D01*
X49176536Y55000000D02*
X41355001Y55000000D01*
X53245000Y72117436D02*
X58127564Y77000000D01*
X37500000Y50000000D02*
X30500000Y50000000D01*
X60000000Y76500000D02*
X60000000Y72000000D01*
X39750000Y50250000D02*
X40365000Y50865000D01*
X53245000Y70880000D02*
X53245000Y72117436D01*
X28500000Y47000000D02*
X48547000Y26953000D01*
X40365000Y50865000D02*
X40365000Y53025000D01*
X54000000Y66000000D02*
X54000000Y59823464D01*
X30500000Y50000000D02*
X28500000Y48000000D01*
X59500000Y77000000D02*
X60000000Y76500000D01*
%TO.N,sig_3*%
X51000000Y50000000D02*
X46215001Y50000000D01*
X66000000Y14658000D02*
X63000000Y17658000D01*
X58000000Y57500000D02*
X58000000Y57000000D01*
X44175000Y52040001D02*
X44175000Y53025000D01*
X46215001Y50000000D02*
X44175000Y52040001D01*
X65390000Y46843654D02*
X65390000Y50110000D01*
X58652991Y58152991D02*
X58652991Y67874816D01*
X65390000Y50110000D02*
X60500000Y55000000D01*
X63000000Y17658000D02*
X63000000Y44453654D01*
X63000000Y44453654D02*
X65390000Y46843654D01*
X58000000Y57000000D02*
X51000000Y50000000D01*
X58000000Y57500000D02*
X58652991Y58152991D01*
%TO.N,sig_4*%
X64347009Y67874816D02*
X64347009Y73652991D01*
X60000000Y78000000D02*
X58000000Y78000000D01*
X49000000Y59250000D02*
X46250000Y56500000D01*
X58000000Y78000000D02*
X49000000Y69000000D01*
X49000000Y69000000D02*
X49000000Y59250000D01*
X44665001Y56500000D02*
X44175000Y56990001D01*
X46250000Y56500000D02*
X44665001Y56500000D01*
X44175000Y56990001D02*
X44175000Y57975000D01*
X75500000Y34705000D02*
X83047000Y27158000D01*
X73500000Y84000000D02*
X75500000Y82000000D01*
X64347009Y77847009D02*
X70500000Y84000000D01*
X64347009Y73652991D02*
X64347009Y77847009D01*
X75500000Y82000000D02*
X75500000Y34705000D01*
X70500000Y84000000D02*
X73500000Y84000000D01*
X64347009Y73652991D02*
X60000000Y78000000D01*
%TO.N,sig_5*%
X42595001Y46000000D02*
X36555000Y52040001D01*
X99547000Y14658000D02*
X89205000Y25000000D01*
X73000000Y83000000D02*
X74500000Y81500000D01*
X74500000Y81500000D02*
X74500000Y72000000D01*
X89205000Y25000000D02*
X82500000Y25000000D01*
X69278175Y70721825D02*
X69278175Y81278175D01*
X82500000Y25000000D02*
X74500000Y33000000D01*
X69278175Y81278175D02*
X71000000Y83000000D01*
X50103553Y46000000D02*
X42595001Y46000000D01*
X36555000Y52040001D02*
X36555000Y53025000D01*
X74500000Y33000000D02*
X74500000Y72000000D01*
X74500000Y70396447D02*
X50103553Y46000000D01*
X71000000Y83000000D02*
X73000000Y83000000D01*
X74500000Y72000000D02*
X74500000Y70396447D01*
%TO.N,sig_6*%
X46675001Y47000000D02*
X41635000Y52040001D01*
X41635000Y52040001D02*
X41635000Y53025000D01*
X77500000Y75500000D02*
X116547000Y36453000D01*
X72000000Y75527807D02*
X72000000Y69000000D01*
X72000000Y69000000D02*
X50000000Y47000000D01*
X116547000Y36453000D02*
X116547000Y27158000D01*
X50000000Y47000000D02*
X46675001Y47000000D01*
X76500000Y75500000D02*
X77500000Y75500000D01*
%TO.N,sig_7*%
X46445001Y48500000D02*
X42905000Y52040001D01*
X70900184Y80122009D02*
X70900184Y68900184D01*
X77000000Y77500000D02*
X133547000Y20953000D01*
X70900184Y68900184D02*
X50500000Y48500000D01*
X133547000Y20953000D02*
X133547000Y14658000D01*
X42905000Y52040001D02*
X42905000Y53025000D01*
X50500000Y48500000D02*
X46445001Y48500000D01*
X72125184Y81347009D02*
X70900184Y80122009D01*
D37*
%TO.N,Net-(C1-Pad1)*%
X10000000Y88000000D02*
X11500000Y86500000D01*
X2000000Y78675000D02*
X2000000Y65500000D01*
X4000000Y79950000D02*
X3275000Y79950000D01*
X7500000Y79950000D02*
X4000000Y79950000D01*
X11500000Y86500000D02*
X11500000Y81000000D01*
X3275000Y79950000D02*
X2000000Y78675000D01*
X2000000Y65500000D02*
X4750000Y62750000D01*
X11500000Y81000000D02*
X12500000Y80000000D01*
D36*
%TO.N,Net-(D10-A)*%
X73500000Y54000000D02*
X73460000Y54000000D01*
X66780000Y47320000D02*
X66780000Y42240000D01*
X85500000Y66000000D02*
X76500000Y57000000D01*
X73460000Y54000000D02*
X66780000Y47320000D01*
X66780000Y42240000D02*
X64240000Y39700000D01*
%TO.N,Net-(D10-K)*%
X112500000Y77460000D02*
X112500000Y72000000D01*
%TO.N,Net-(R2-Pad1)*%
X37412500Y65000000D02*
X37412500Y65412500D01*
X37412500Y65412500D02*
X41547000Y69547000D01*
X41547000Y69547000D02*
X41547000Y77158000D01*
D38*
%TO.N,Net-(U3-Q8)*%
X55805982Y86278175D02*
X58652991Y89125184D01*
X50874816Y81347009D02*
X50874816Y83431166D01*
X53721825Y86278175D02*
X55805982Y86278175D01*
X52500000Y74000000D02*
X45445000Y66945000D01*
X58652991Y89125184D02*
X64347009Y89125184D01*
X66431166Y89125184D02*
X69278175Y86278175D01*
X50874816Y83431166D02*
X53721825Y86278175D01*
X45445000Y66945000D02*
X45445000Y57975000D01*
X52500000Y79721825D02*
X52500000Y74000000D01*
X50874816Y81347009D02*
X52500000Y79721825D01*
X64347009Y89125184D02*
X66431166Y89125184D01*
%TO.N,Net-(U3-Reset)*%
X37825000Y57975000D02*
X37825000Y56990001D01*
X52500000Y66500000D02*
X58671573Y72671573D01*
X58671573Y72671573D02*
X58671573Y75671573D01*
X49000000Y56000000D02*
X52500000Y59500000D01*
X52500000Y59500000D02*
X52500000Y66500000D01*
X38815001Y56000000D02*
X49000000Y56000000D01*
X37825000Y56990001D02*
X38815001Y56000000D01*
%TD*%
M02*
