M48
; DRILL file {KiCad 8.0.3} date 2024-06-17T23:08:17+0200
; FORMAT={-:-/ absolute / inch / decimal}
; #@! TF.CreationDate,2024-06-17T23:08:17+02:00
; #@! TF.GenerationSoftware,Kicad,Pcbnew,8.0.3
; #@! TF.FileFunction,Plated,1,2,PTH
FMAT,2
INCH
; #@! TA.AperFunction,Plated,PTH,ViaDrill
T1C0.0098
; #@! TA.AperFunction,Plated,PTH,ViaDrill
T2C0.0118
; #@! TA.AperFunction,Plated,PTH,ComponentDrill
T3C0.0315
; #@! TA.AperFunction,Plated,PTH,ComponentDrill
T4C0.0354
; #@! TA.AperFunction,Plated,PTH,ComponentDrill
T5C0.0394
; #@! TA.AperFunction,Plated,PTH,ComponentDrill
T6C0.0461
; #@! TA.AperFunction,Plated,PTH,ComponentDrill
T7C0.0512
%
G90
G05
T1
X1.3976Y2.1654
X1.4315Y2.4071
X1.4764Y1.9685
X1.565Y1.9783
X1.5892Y2.3569
X1.8307Y2.0669
X2.2835Y2.2638
X2.3819Y2.1654
X2.8937Y2.126
X3.0118Y2.9724
X3.0315Y3.0512
X3.4664Y0.9449
T2
X0.1575Y3.0315
X0.2953Y3.0315
X0.8465Y3.0315
X1.0236Y3.1102
X1.063Y2.015
X1.1882Y1.8898
X3.0118Y2.2441
X3.0118Y0.0659
X3.3661Y2.5984
X3.4547Y2.687
X4.5472Y2.8346
T3
X0.4921Y3.1496
X0.4921Y3.0512
X0.7165Y2.8661
X0.7165Y2.7661
X0.7165Y2.6661
X0.7165Y2.5661
X1.0165Y2.8661
X1.0165Y2.7661
X1.0165Y2.6661
X1.0165Y2.5661
X1.1811Y2.7675
X1.1811Y2.6691
X2.4291Y1.863
X2.4291Y1.563
X2.5291Y1.863
X2.5291Y1.563
X2.6291Y1.863
X2.6291Y1.563
X2.7291Y1.863
X2.7291Y1.563
T4
X0.4921Y0.2378
X0.4921Y0.1378
X0.7874Y3.3661
X0.7874Y3.2661
X1.2008Y0.2378
X1.2008Y0.1378
X1.9291Y0.2378
X1.9291Y0.1378
X2.5984Y0.2378
X2.5984Y0.1378
X3.3071Y0.2378
X3.3071Y0.1378
X3.9173Y0.2378
X3.9173Y0.1378
X4.4291Y3.1496
X4.4291Y3.0496
X4.5866Y0.2378
X4.5866Y0.1378
X5.2559Y0.2378
X5.2559Y0.1378
T6
X2.0029Y3.2026
X2.0029Y2.9785
X2.0963Y2.7906
X2.115Y3.3968
X2.3092Y3.5089
X2.3092Y2.6722
X2.3099Y2.9792
X2.5333Y3.5089
X2.5333Y2.6722
X2.7275Y3.3968
X2.7275Y2.7843
X2.8396Y3.2026
X2.8396Y2.9785
T7
X0.2971Y1.0692
X0.494Y1.0692
X0.6908Y1.0692
X1.0058Y0.5771
X1.2026Y0.5771
X1.242Y3.0377
X1.3995Y0.5771
X1.4389Y3.0377
X1.6357Y3.0377
X1.7144Y1.0692
X1.9113Y1.0692
X2.1081Y1.0692
X2.4016Y0.5771
X2.5984Y0.5771
X2.7953Y0.5771
X3.0727Y1.0692
X3.2696Y1.0692
X3.4664Y1.0692
X3.7223Y0.5771
X3.9192Y0.5771
X4.116Y0.5771
X4.3916Y1.0692
X4.5885Y1.0692
X4.7853Y1.0692
X5.0609Y0.5771
X5.2578Y0.5771
X5.4546Y0.5771
T5
G00X0.1575Y3.5039
M15
G01X0.1575Y3.4252
M16
G05
G00X0.1969Y2.6772
M15
G01X0.315Y2.6772
M16
G05
G00X0.1969Y2.4705
M15
G01X0.315Y2.4705
M16
G05
G00X0.2362Y3.2795
M15
G01X0.315Y3.2795
M16
G05
G00X0.3937Y3.5039
M15
G01X0.3937Y3.4252
M16
G05
G00X4.7812Y3.2343
M15
G01X4.8647Y3.3178
M16
G05
G00X5.1614Y3.3509
M15
G01X5.0433Y3.3509
M16
G05
G00X5.2598Y3.1737
M15
G01X5.2598Y3.0556
M16
G05
M30
